<!DOCTYPE svg PUBLIC "-//W3C//DTD SVG 1.1//EN" "http://www.w3.org/Graphics/SVG/1.1/DTD/svg11.dtd">
<!-- Uploaded to: SVG Repo, www.svgrepo.com, Transformed by: SVG Repo Mixer Tools -->
<svg fill="#FFDF01" width="64px" height="64px" viewBox="-7.92 -7.92 39.84 39.84" xmlns="http://www.w3.org/2000/svg" stroke="#FFDF01" stroke-width="0.00024000000000000003">
<g id="SVGRepo_bgCarrier" stroke-width="0"/>
<g id="SVGRepo_tracerCarrier" stroke-linecap="round" stroke-linejoin="round"/>
<g id="SVGRepo_iconCarrier"> <defs> <style> .cls-1 { fill-rule: evenodd; } </style> </defs> <path id="_2-toggles" data-name="2-toggles" class="cls-1" d="M1231,107h-14a5,5,0,1,1,0-10h14A5,5,0,1,1,1231,107Zm0-8h-14a3,3,0,1,0,0,6h14A3,3,0,1,0,1231,99Zm0,4h-1a1,1,0,0,1,0-2h1A1,1,0,0,1,1231,103Zm-14,6h14a5,5,0,0,1,0,10h-14A5,5,0,0,1,1217,109Zm0,8h14a3,3,0,0,0,0-6h-14A3,3,0,0,0,1217,117Zm0-4h1a1,1,0,0,1,0,2h-1A1,1,0,0,1,1217,113Z" transform="translate(-1212 -97)"/> </g>
</svg>