<svg data-v-423bf9ae="" xmlns="http://www.w3.org/2000/svg" viewBox="0 0 94.72154673500486 60" class="font"><!----><!----><defs data-v-423bf9ae=""><linearGradient data-v-423bf9ae="" gradientTransform="rotate(25)" id="0289f7e7-a1de-46c0-bca8-3c801c4678f5" x1="0%" y1="0%" x2="100%" y2="0%"><stop data-v-423bf9ae="" offset="0%" style="stop-color: rgb(221, 9, 91); stop-opacity: 1;"></stop><stop data-v-423bf9ae="" offset="100%" style="stop-color: rgb(182, 51, 218); stop-opacity: 1;"></stop></linearGradient></defs><g data-v-423bf9ae="" id="dc482a88-9dd9-45d0-8259-b7ae639d17cb" fill="url(#0289f7e7-a1de-46c0-bca8-3c801c4678f5)" transform="matrix(7.26392231687895,0,0,7.26392231687895,-0.9443097898838886,-18.30508362314947)"><path d="M0.13 10.64L0.13 10.64L0.13 10.64Q0.13 10.58 0.20 10.21L0.20 10.21L0.20 10.21Q0.38 9.08 0.61 7.88L0.61 7.88L0.61 7.88Q0.84 6.68 1.21 4.89L1.21 4.89L1.21 4.89Q1.58 3.10 1.70 2.55L1.70 2.55L1.70 2.55Q2.38 2.52 3.58 2.52L3.58 2.52L3.58 2.52Q4.69 2.52 5.52 2.55L5.52 2.55L5.52 2.55Q5.58 2.55 5.63 2.59L5.63 2.59L5.63 2.59Q5.67 2.63 5.68 2.68L5.68 2.68L5.68 2.68Q5.83 3.45 6.20 5.17L6.20 5.17L6.20 5.17Q6.56 6.90 6.81 8.23L6.81 8.23L6.81 8.23Q7.06 9.56 7.25 10.75L7.25 10.75L7.25 10.75Q6.60 10.78 6.06 10.78L6.06 10.78L6.06 10.78Q5.19 10.78 4.72 10.75L4.72 10.75L4.72 10.75Q4.66 10.75 4.61 10.71L4.61 10.71L4.61 10.71Q4.57 10.67 4.56 10.61L4.56 10.61L4.56 10.61Q4.40 9.83 4.31 9.25L4.31 9.25L3.04 9.25L3.04 9.25Q2.93 9.98 2.78 10.75L2.78 10.75L2.78 10.75Q2.12 10.78 1.64 10.78L1.64 10.78L1.64 10.78Q1.08 10.78 0.25 10.75L0.25 10.75L0.25 10.75Q0.19 10.75 0.16 10.72L0.16 10.72L0.16 10.72Q0.13 10.68 0.13 10.64ZM3.27 7.47L3.27 7.47L4.04 7.47L4.04 7.47Q3.95 6.91 3.81 5.87L3.81 5.87L3.81 5.87Q3.67 4.83 3.61 4.40L3.61 4.40L3.61 4.40Q3.54 4.96 3.43 6.00L3.43 6.00L3.43 6.00Q3.32 7.04 3.27 7.47ZM7.01 3.59L7.01 3.59L7.01 3.59Q7.01 3.04 7.03 2.55L7.03 2.55L7.03 2.55Q7.68 2.52 10.19 2.52L10.19 2.52L10.19 2.52Q12.18 2.52 13.02 2.55L13.02 2.55L13.02 2.55Q13.07 2.55 13.11 2.59L13.11 2.59L13.11 2.59Q13.15 2.63 13.15 2.68L13.15 2.68L13.15 2.68Q13.17 3.46 13.17 3.85L13.17 3.85L13.17 3.85Q13.17 4.40 13.15 4.87L13.15 4.87L13.15 4.87Q12.93 4.88 11.50 4.89L11.50 4.89L11.50 4.89Q11.51 5.63 11.51 6.65L11.51 6.65L11.51 6.65Q11.51 8.56 11.46 10.75L11.46 10.75L11.46 10.75Q10.81 10.78 10.26 10.78L10.26 10.78L10.26 10.78Q9.70 10.78 8.86 10.75L8.86 10.75L8.86 10.75Q8.80 10.75 8.76 10.71L8.76 10.71L8.76 10.71Q8.72 10.67 8.72 10.61L8.72 10.61L8.72 10.61Q8.67 8.04 8.67 6.65L8.67 6.65L8.67 6.65Q8.67 6.02 8.68 4.88L8.68 4.88L8.68 4.88Q7.90 4.86 7.16 4.84L7.16 4.84L7.16 4.84Q7.11 4.84 7.07 4.80L7.07 4.80L7.07 4.80Q7.03 4.76 7.03 4.71L7.03 4.71L7.03 4.71Q7.01 3.92 7.01 3.59Z"></path></g><!----><!----></svg>